<svg width="130" height="43" viewBox="0 0 130 43" fill="none" xmlns="http://www.w3.org/2000/svg">
<g id="Group 7">
<path id="Vector" d="M10.1549 40.6182H0V0.834812C0.00379045 0.83089 0.0110291 0.821621 0.0196438 0.813776C0.0282584 0.805932 0.0365291 0.795233 0.0461775 0.79345C0.0908557 0.783309 0.136262 0.776987 0.181942 0.774552C7.6227 0.774552 15.0633 0.774552 22.5039 0.774552C22.5569 0.779521 22.6095 0.788342 22.6614 0.800941V9.60295C21.6183 9.60937 20.5787 9.60508 19.5387 9.6058C18.505 9.6058 17.4712 9.6058 16.4374 9.6058H10.2225C10.1391 9.90709 10.1243 14.8893 10.2008 15.3243H21.6255C21.6541 15.7817 21.6366 16.2053 21.64 16.6279C21.6434 17.0504 21.64 17.4836 21.64 17.9115V20.4302L21.7024 20.4495C21.7567 20.3826 21.8077 20.3128 21.855 20.2405C23.7947 16.9698 26.6448 15.0433 30.2161 14.1879C31.4592 13.8957 32.7318 13.7585 34.0065 13.7793C36.2439 13.805 38.411 14.1968 40.4461 15.2095C42.707 16.3344 44.4454 18.0406 45.7114 20.2726C46.2245 21.1772 46.6263 22.1328 46.9519 23.1251C46.9864 23.226 47.0208 23.3258 47.0598 23.4249C47.0677 23.4446 47.0894 23.4606 47.139 23.513C47.1852 23.3779 47.2262 23.2634 47.2627 23.15C47.9595 20.9715 49.0573 19.045 50.6483 17.4362C52.5022 15.561 54.7123 14.4154 57.2826 14.0325C58.8543 13.7982 60.4159 13.8488 61.9641 14.2368C63.6299 14.654 65.0351 15.5247 66.2025 16.8168C66.2804 16.9031 66.3648 16.9834 66.4489 17.0632C66.4627 17.0764 66.492 17.0721 66.5644 17.0843C66.5733 16.9459 66.5899 16.8118 66.5899 16.6778C66.5912 14.8367 66.5912 12.9958 66.5899 11.155C66.5899 7.84166 66.5899 4.52805 66.5899 1.21419V0.83802C66.8721 0.758507 74.8992 0.731054 75.5146 0.799156C75.5362 0.871834 75.5524 0.946089 75.5632 1.02129C75.5722 1.13931 75.567 1.25876 75.567 1.37785V40.5558C75.2641 40.6628 66.9837 40.6767 66.6002 40.5776C66.5678 39.7575 66.6102 38.9235 66.5771 38.0934L66.481 38.0627C66.399 38.1665 66.3121 38.2671 66.2353 38.3751C65.3459 39.623 64.2332 40.5922 62.8728 41.2468C61.3811 41.9646 59.816 42.1992 58.1785 42.0516C56.4001 41.8918 54.7364 41.3741 53.1965 40.4492C50.9174 39.0786 49.2338 37.1275 48.0573 34.7011C47.3573 33.2682 46.8915 31.7251 46.679 30.1347C46.6728 30.0876 46.6631 30.0412 46.6525 29.9949C46.6394 29.9375 46.6239 29.8808 46.6104 29.8277C46.3375 29.7564 29.1144 29.7467 28.7678 29.8209C28.6988 30.1603 28.7702 30.4984 28.8329 30.8314C29.2464 33.0185 30.9125 34.7535 33.0341 35.1643C34.051 35.3604 35.0726 35.2805 36.0664 34.976C36.8934 34.7229 37.5171 34.1577 37.9985 33.4428C38.2449 33.077 38.5154 32.9693 38.9348 32.9729C41.4723 32.995 44.0098 32.9839 46.5477 32.9839H47.0122C46.9967 33.0791 46.9977 33.1394 46.9778 33.19C45.9785 35.6553 44.5536 37.7896 42.4458 39.3899C40.8717 40.5833 39.1033 41.2989 37.1956 41.6765C35.8181 41.9475 34.4133 42.0395 33.0137 41.9503C29.2119 41.7153 25.9287 40.2763 23.334 37.3339C21.6266 35.3982 20.5983 33.1069 20.1614 30.5315C19.8037 28.4235 19.8692 26.3241 20.3133 24.2358C20.3306 24.1548 20.3478 24.0739 20.3616 23.9922C20.362 23.9689 20.3588 23.9457 20.3523 23.9234C20.1166 23.8435 10.7728 23.8107 10.177 23.8935C10.126 24.6747 10.1622 25.4655 10.1556 26.2549C10.1491 27.0508 10.1556 27.847 10.1556 28.6439V40.6182H10.1549ZM55.6796 27.9465C55.6675 28.9448 55.8174 29.914 56.1841 30.8346C57.0424 32.9968 58.4762 34.4219 60.836 34.5956C61.8046 34.6669 62.7343 34.4751 63.5882 33.9773C64.7253 33.3145 65.4389 32.2876 65.8449 31.0321C66.5685 28.7976 66.4727 26.5694 65.707 24.3645C65.4439 23.6137 65.0295 22.9294 64.4913 22.357C63.1095 20.8698 60.8387 20.6641 59.214 21.3327C58.0751 21.8012 57.2619 22.6451 56.6758 23.7359C55.9714 25.0462 55.6958 26.465 55.6796 27.9465ZM38.7766 23.9979C38.5785 22.8926 38.1522 21.942 37.3931 21.1679C36.4992 20.2558 35.3945 19.8522 34.1633 19.7952C31.0207 19.6493 29.3518 22.157 29.0634 23.9979H38.7766Z" fill="black"/>
<path id="Vector_2" d="M75.5972 0.760498H96.1731C96.2494 1.04391 96.2714 9.02576 96.1965 9.52217C96.0673 9.53075 95.9288 9.54862 95.7889 9.54862C92.7785 9.55005 89.768 9.55005 86.7574 9.54862C86.0439 9.54862 85.3301 9.54862 84.6157 9.54862C84.2981 9.54862 84.2707 9.57399 84.27 9.91529C84.2667 11.5938 84.2667 13.2725 84.27 14.9512C84.27 15.0563 84.2901 15.161 84.3035 15.3015C84.4581 15.3086 84.5983 15.3211 84.7385 15.3211C88.418 15.3211 92.0974 15.322 95.7769 15.3236C95.9174 15.3236 96.0579 15.344 96.2146 15.3561V23.8215C95.5433 23.8469 94.8897 23.8301 94.2369 23.8333C93.579 23.8362 92.9214 23.8333 92.2625 23.8333H84.3115C84.2938 24.0045 84.2673 24.1421 84.267 24.2797C84.2648 26.637 84.2648 28.9943 84.267 31.3517C84.267 31.49 84.2951 31.6279 84.3149 31.807H96.1577C96.2527 32.1086 96.2725 40.1752 96.1854 40.6119C96.0784 40.6219 95.9606 40.6423 95.8424 40.6423C89.2193 40.6437 82.5962 40.6437 75.973 40.6423C75.9175 40.6423 75.8616 40.638 75.8057 40.6398C75.633 40.6462 75.5658 40.5476 75.5684 40.3749C75.5684 40.3035 75.5684 40.232 75.5684 40.1605C75.5684 27.1712 75.5684 14.182 75.5684 1.19293C75.5681 1.05891 75.5862 0.92025 75.5972 0.760498Z" fill="#7C7C7C"/>
<path id="Vector_3" d="M96.2422 40.6188L107.218 28.3272L96.246 16.0398C96.3649 16.0196 96.438 15.9966 96.5111 15.9966C100.158 15.995 103.805 15.9932 107.452 15.9911C107.675 15.9911 107.817 16.0832 107.958 16.238C109.487 17.9238 111.019 19.6075 112.553 21.2891C112.77 21.5263 112.99 21.76 113.278 22.0706C113.362 21.9405 113.408 21.8442 113.476 21.7663C115.066 19.9482 116.662 18.135 118.246 16.3125C118.446 16.0818 118.653 15.9876 118.964 15.9883C122.366 15.9991 125.768 15.9952 129.17 15.9952H129.544L129.579 16.0683C128.696 17.0891 127.785 18.0856 126.889 19.0964C125.98 20.1218 125.065 21.1412 124.152 22.1635C123.248 23.177 122.344 24.1909 121.44 25.2052C120.537 26.2173 119.633 27.2284 118.7 28.274C119.93 29.6726 121.163 31.0242 122.382 32.3887C123.601 33.7532 124.821 35.1003 126.039 36.4568C127.263 37.8206 128.487 39.1858 129.749 40.5958C129.604 40.6153 129.519 40.6369 129.434 40.6369C125.799 40.6383 122.164 40.6403 118.529 40.6431C118.279 40.6431 118.122 40.5437 117.966 40.3684C116.391 38.5993 114.813 36.8331 113.231 35.0697C113.094 34.917 112.948 34.7723 112.78 34.5959C112.652 34.7302 112.546 34.8335 112.448 34.9438C110.844 36.7494 109.243 38.557 107.645 40.3666C107.475 40.5593 107.306 40.6428 107.05 40.6421C103.576 40.6344 100.103 40.6327 96.6307 40.6369C96.5282 40.6369 96.4261 40.6275 96.2422 40.6188Z" fill="#7C7C7C"/>
</g>
</svg>
