<svg width="141" height="52" viewBox="0 0 141 52" fill="none" xmlns="http://www.w3.org/2000/svg">
<g id="Group 8">
<path id="Vector" d="M47.6387 14.1324C52.8204 5.25732 60.1619 0.278913 70.2506 0.306869C80.2907 0.334826 87.5794 5.32184 92.6512 14.1002C97.8414 5.27023 105.215 0.306868 115.381 0.285363C122.507 0.27246 128.534 3.05951 133.467 8.25297C143.441 18.7582 142.651 36.1321 131.539 45.7039C119.796 55.8113 100.633 53.1447 92.7505 37.8912C87.704 46.6502 80.333 51.6866 70.3119 51.706C60.2908 51.7253 52.8605 46.7749 47.757 37.8718C42.4464 47.0136 34.7287 51.9791 24.2554 51.706C17.009 51.5146 10.9418 48.3921 6.14681 42.8244C-2.98461 32.2138 -1.8054 15.6206 8.7736 6.48095C14.9169 1.17137 22.0301 -0.77913 29.9485 0.747726C37.8669 2.27458 43.634 6.94116 47.6387 14.1324ZM115.155 46.1362C126.007 46.1534 134.923 37.1191 134.961 26.0699C134.999 15.0206 126.047 5.81215 115.202 5.80785C104.357 5.80355 95.4238 14.8937 95.4005 25.915C95.3752 37.0331 104.253 46.1211 115.155 46.1362ZM25.219 46.1362C36.0918 46.1362 44.9548 37.1234 44.9823 26.029C45.0119 14.8959 36.1192 5.7971 25.2148 5.8143C14.378 5.8143 5.51917 14.898 5.51283 25.9989C5.50649 37.0998 14.3399 46.1319 25.219 46.1362ZM50.4387 25.8656C50.3056 36.7213 59.1179 45.9018 69.7159 46.162C80.3139 46.4222 89.6799 37.846 89.9399 26.6613C90.2061 15.2507 81.4868 5.97129 70.6056 5.8143C67.9864 5.77851 65.3859 6.26928 62.9535 7.25847C60.521 8.24766 58.3044 9.71581 56.4308 11.5787C54.5572 13.4416 53.0634 15.6626 52.0351 18.1142C51.0069 20.5659 50.4644 23.2001 50.4387 25.8656Z" fill="#7C7C7C"/>
<path id="Vector_2" d="M111.987 20.3777C109.982 20.3777 108.183 20.3454 106.4 20.3906C105.485 20.4142 105.132 20.068 105.182 19.1304C105.242 18.0551 105.214 16.9799 105.182 15.9046C105.168 15.2444 105.394 14.9089 106.087 14.9089C112.173 14.919 118.26 14.919 124.348 14.9089C124.999 14.9089 125.216 15.21 125.208 15.8251C125.193 17.0057 125.18 18.1906 125.208 19.3691C125.227 20.1196 124.901 20.3906 124.196 20.3777C122.613 20.3497 121.026 20.425 119.449 20.3131C118.568 20.2529 118.369 20.5282 118.373 21.3604C118.405 26.4786 118.373 31.599 118.409 36.7193C118.409 37.7429 118.126 38.1343 117.095 38.072C115.828 37.9943 114.558 37.9943 113.291 38.072C112.268 38.1343 111.943 37.7688 111.951 36.7301C111.991 31.7194 111.968 26.7066 111.968 21.6938L111.987 20.3777Z" fill="#7C7C7C"/>
<path id="Vector_3" d="M21.9585 20.3797C19.9805 20.3797 18.1905 20.3496 16.4006 20.3904C15.5025 20.4119 15.1136 20.0958 15.1622 19.1453C15.2193 18.0378 15.1876 16.926 15.1622 15.8163C15.1622 15.184 15.4158 14.9131 16.0456 14.9131C22.1318 14.9231 28.218 14.9231 34.3042 14.9131C34.9382 14.9131 35.1939 15.184 35.1875 15.812C35.1727 16.9582 35.1537 18.1044 35.1875 19.2528C35.2171 20.0829 34.9001 20.4162 34.0781 20.3926C32.5988 20.3517 31.1195 20.4033 29.6402 20.3646C28.3469 20.3323 28.3448 20.3001 28.3448 21.6549V36.5837C28.3448 38.0503 28.3448 38.0525 26.8655 38.0546C25.6356 38.0546 24.3993 37.9987 23.1736 38.0718C22.1719 38.132 21.9057 37.717 21.9057 36.7579C21.9374 31.7106 21.9205 26.6634 21.9205 21.6162L21.9585 20.3797Z" fill="#7C7C7C"/>
<path id="Vector_4" d="M65.9509 24.9195V32.7473C65.9509 34.0011 65.934 35.257 65.9509 36.5107C65.9636 37.1989 65.6741 37.4827 65.0063 37.4741C63.6686 37.4569 62.3288 37.4268 60.9911 37.4741C60.0613 37.515 59.7612 37.1516 59.7718 36.2247C59.8098 32.8205 59.7865 29.4162 59.7865 26.012C59.7865 22.6077 59.8077 19.2035 59.7718 15.7992C59.7718 14.8401 60.0866 14.5864 61.0397 14.453C64.049 14.0229 66.0672 15.0337 67.6944 17.7691C69.6132 20.9949 72.035 23.9217 74.4251 27.2313C74.4653 26.6399 74.5076 26.2894 74.5076 25.941C74.5076 22.5368 74.535 19.1325 74.4949 15.7304C74.4843 14.8186 74.74 14.4208 75.6889 14.4659C76.9906 14.5261 78.2945 14.496 79.5963 14.4659C80.3317 14.4466 80.5895 14.7606 80.5874 15.4896C80.5747 22.4773 80.5747 29.4642 80.5874 36.4505C80.5874 37.1989 80.3148 37.5258 79.5984 37.4569H79.4927C75.2366 37.5903 75.2366 37.5903 72.7303 34.1022C70.617 31.1517 68.4974 28.2026 66.3715 25.255C66.2409 25.1313 66.1002 25.019 65.9509 24.9195Z" fill="#7C7C7C"/>
</g>
</svg>
