<svg width="200" height="44" viewBox="0 0 200 44" fill="none" xmlns="http://www.w3.org/2000/svg">
<g id="Group 9">
<path id="Vector" d="M115.833 0.279501H131.692C128.45 7.04006 125.259 13.6884 122.077 20.3272H83.6699C86.9072 13.5762 90.1025 6.92306 93.2919 0.267578H109.166C107.424 3.91293 105.724 7.46753 103.976 11.1272C104.229 11.1816 104.485 11.2195 104.743 11.2406C106.417 11.249 108.091 11.2144 109.764 11.2621C110.392 11.2801 110.68 11.0162 110.933 10.4789C112.399 7.3744 113.894 4.28546 115.378 1.19175C115.522 0.884887 115.677 0.586365 115.833 0.279501Z" fill="#7C7C7C"/>
<path id="Vector_2" d="M39.5312 11.0934L44.7568 0.227783H45.786C55.4926 0.227783 65.1999 0.227783 74.9079 0.227783C76.4962 0.227783 78.0657 0.325708 79.5943 0.810481C84.9895 2.51674 87.1637 8.04386 85.0983 12.9441C84.1018 15.3083 82.8843 17.5734 81.8013 19.9005C81.5545 20.4283 81.1627 20.3781 80.7417 20.3781H70.4274C69.88 20.3781 69.3315 20.3912 68.7841 20.3685C67.8637 20.3303 67.5362 19.8707 67.7935 18.9608C67.9046 18.6058 68.0451 18.2611 68.2134 17.9304C68.9303 16.4223 69.6637 14.9226 70.3783 13.4134C71.08 11.9292 70.7291 11.3167 69.0917 11.1829C68.4251 11.128 67.7549 11.1006 67.0859 11.1006C58.3533 11.0958 49.6206 11.0958 40.8879 11.1006L39.5312 11.0934Z" fill="#7C7C7C"/>
<path id="Vector_3" d="M39.2266 32.3461L48.9105 12.2208C49.197 12.2041 49.4649 12.1731 49.7292 12.1731C53.747 12.1731 57.7625 12.1751 61.7756 12.1791C62.2598 12.167 62.7434 12.2224 63.213 12.3438C63.951 12.56 64.1638 13.0388 63.9334 13.7838C63.8396 14.0464 63.7266 14.3015 63.5954 14.5468C62.8719 16.0513 62.1463 17.5549 61.4189 19.0578C61.3253 19.2536 61.2201 19.4435 61.1382 19.6441C60.6891 20.751 61.1382 21.4674 62.3194 21.5283C62.5919 21.5414 62.8668 21.5283 63.1381 21.5283H80.8229C80.7972 21.7074 80.8089 21.859 80.7551 21.9784C79.7399 24.185 78.5002 26.2375 76.7927 27.9688C74.4851 30.3091 71.6829 31.6321 68.4888 32.0727C67.1013 32.2514 65.7038 32.3371 64.3053 32.3294C56.3325 32.3521 48.3596 32.3401 40.3868 32.3401L39.2266 32.3461Z" fill="#7C7C7C"/>
<path id="Vector_4" d="M155.14 32.3461H154.013C145.795 32.3461 137.577 32.3425 129.359 32.3354C128.423 32.3354 127.462 32.2876 126.552 32.0727C123.682 31.3921 122.2 28.8858 122.809 25.9222C123.132 24.3461 123.955 23.0005 124.622 21.5688H160.32L155.14 32.3461Z" fill="#7C7C7C"/>
<path id="Vector_5" d="M141.087 20.339H125.264C125.392 20.0226 125.48 19.7683 125.596 19.5283C128.567 13.3433 131.54 7.15822 134.515 0.973186C134.724 0.536173 134.905 0.20783 135.498 0.210218C140.426 0.237681 145.354 0.226925 150.283 0.230507C150.369 0.237451 150.454 0.251844 150.538 0.273505C150.559 0.299185 150.578 0.326752 150.594 0.355885C150.606 0.384542 150.621 0.421557 150.61 0.445437C150.493 0.729614 150.376 1.01619 150.245 1.2932C147.194 7.64461 144.141 13.9932 141.087 20.339Z" fill="#7C7C7C"/>
<path id="Vector_6" d="M93.7619 32.2988H77.8828L83.0394 21.5657H98.9196C97.1746 25.1979 95.4682 28.7418 93.7619 32.2988Z" fill="#7C7C7C"/>
<path id="Vector_7" d="M105.571 21.5566H121.335C121.294 21.7648 121.235 21.969 121.16 22.1668C119.639 25.3465 118.104 28.5178 116.589 31.7011C116.38 32.1416 116.131 32.3566 115.621 32.3542C110.753 32.3375 105.884 32.3446 101.016 32.341C100.82 32.3254 100.625 32.2991 100.432 32.2622C102.157 28.6646 103.851 25.1375 105.571 21.5566Z" fill="#7C7C7C"/>
<path id="Vector_8" d="M41.2874 25.4685C40.8067 26.4488 40.3869 27.3359 39.9284 28.2016C39.8477 28.3544 39.6114 28.4511 39.4278 28.5085C39.2442 28.5658 39.0653 28.5216 38.8828 28.5216H1.85938C2.26638 27.3956 2.79503 26.444 3.27221 25.4673L41.2874 25.4685Z" fill="#7C7C7C"/>
<path id="Vector_9" d="M158.303 28.4632C158.771 27.4806 159.179 26.5886 159.628 25.717C159.706 25.5665 159.953 25.4674 160.14 25.4269C160.381 25.3965 160.625 25.3913 160.868 25.4113C172.768 25.4113 184.668 25.4113 196.567 25.4113H197.776L196.299 28.4609L158.303 28.4632Z" fill="#7C7C7C"/>
<path id="Vector_10" d="M160.178 24.5851C160.699 23.4914 161.163 22.5218 161.619 21.5642H199.615L198.191 24.5851H160.178Z" fill="#7C7C7C"/>
<path id="Vector_11" d="M43.1382 21.5881L41.6973 24.6078H3.69727C4.19784 23.5523 4.65396 22.5899 5.12763 21.5881H43.1382Z" fill="#7C7C7C"/>
<path id="Vector_12" d="M39.4409 29.2631C38.9333 30.315 38.5509 31.1544 38.1193 31.9676C38.0257 32.1419 37.7684 32.2744 37.5579 32.3258C37.2983 32.3878 37.0141 32.3472 36.7392 32.3472H0C0.397429 31.3719 0.853237 30.4225 1.36486 29.5043C1.43387 29.3789 1.6631 29.3085 1.83268 29.2846C2.1048 29.2587 2.37834 29.2519 2.65137 29.2643H39.4444L39.4409 29.2631Z" fill="#7C7C7C"/>
<path id="Vector_13" d="M195.918 29.2633C195.408 30.3201 195.027 31.1606 194.593 31.9726C194.5 32.1481 194.232 32.2687 194.021 32.3308C193.787 32.3917 193.538 32.3511 193.295 32.3511H156.443C156.933 31.3314 157.342 30.4406 157.793 29.5797C157.873 29.4281 158.124 29.3254 158.311 29.2896C158.583 29.2567 158.857 29.2495 159.13 29.2681H195.917L195.918 29.2633Z" fill="#7C7C7C"/>
<path id="Vector_14" d="M80.2773 39.6499C79.6656 40.5693 78.9709 41.441 78.4633 42.4213C77.9206 43.4625 77.1651 43.6941 76.1406 43.4374C75.9277 42.789 75.8868 37.109 76.0996 36.1085H77.8107V40.2278C78.5943 39.5114 78.9218 38.7508 79.3791 38.0941C79.8364 37.4374 80.2562 36.752 80.6726 36.1097H82.2655V40.2386C82.5591 39.9449 82.7205 39.8278 82.8246 39.6714C83.4737 38.6947 84.1391 37.7264 84.7368 36.7174C85.0479 36.192 85.421 35.9795 86.0034 36.0547C86.2993 36.0917 86.6022 36.0607 87.0315 36.0607C86.8502 36.3962 86.7402 36.6374 86.5976 36.8559C85.3625 38.7409 84.1247 40.6239 82.8842 42.5048C82.1299 43.6511 82.0316 43.6917 80.5451 43.3705V39.7264L80.2773 39.6499Z" fill="#7C7C7C"/>
<path id="Vector_15" d="M42.1501 43.3514V39.7096L41.984 39.6522C41.8455 39.7893 41.7162 39.9357 41.5969 40.0905C41.0121 40.9609 40.3829 41.8075 39.8706 42.7173C39.4928 43.3931 38.9946 43.5985 38.2987 43.5066L37.6484 43.4218V36.1072H39.3431C39.5443 37.3908 39.3232 38.7233 39.4905 40.1908C39.665 40.0175 39.8286 39.8333 39.9805 39.6391C40.5653 38.7627 41.2097 37.9233 41.6764 36.9884C42.1734 35.9938 42.8916 35.9353 43.8845 36.143V40.2433C44.1792 39.9317 44.336 39.8087 44.4412 39.6463C45.0892 38.6684 45.7488 37.6977 46.3546 36.6935C46.6435 36.2159 46.9768 35.977 47.5323 36.0451C47.8551 36.0845 48.185 36.0523 48.6387 36.0523C48.4493 36.3985 48.3358 36.6397 48.1908 36.8606C46.9433 38.7711 45.6895 40.6815 44.4295 42.5919C43.7465 43.6451 43.5781 43.7036 42.1501 43.3514Z" fill="#7C7C7C"/>
<path id="Vector_16" d="M90.6169 36.0752C92.1373 36.0752 93.6285 36.037 95.1115 36.0895C96.0589 36.123 96.5886 36.8644 96.4343 37.8137C96.3774 38.1493 96.2791 38.4763 96.1419 38.7868C95.66 39.8901 95.1489 40.9802 94.6601 42.0799C94.2098 43.0913 93.4975 43.5772 92.3654 43.5283C90.7889 43.4602 89.2076 43.5032 87.6287 43.496C87.5279 43.4743 87.4292 43.4432 87.334 43.4029C88.3842 40.9384 89.5035 38.5241 90.6169 36.0752ZM94.2145 37.9761C93.7034 37.5606 93.1338 37.7755 92.6063 37.7146C92.1443 37.662 91.8906 37.8805 91.7081 38.3116C91.2754 39.3372 90.7935 40.3414 90.3468 41.3599C90.2696 41.5354 90.2637 41.7444 90.2087 42.0178H91.9315C92.3783 42.0178 92.6777 41.7874 92.859 41.3886C93.2929 40.4334 93.7268 39.4782 94.1455 38.5086C94.211 38.3522 94.1957 38.1564 94.2145 37.9761Z" fill="#7C7C7C"/>
<path id="Vector_17" d="M69.7457 36.0669C71.2533 36.0669 72.6802 36.0418 74.1047 36.0764C75.1503 36.1003 75.659 36.7129 75.5491 37.7648C75.5059 38.1329 75.409 38.4923 75.2614 38.831C74.8111 39.8806 74.3164 40.9098 73.8579 41.9558C73.3901 43.0232 72.6884 43.6071 71.4568 43.5319C70.0966 43.4483 68.7259 43.5152 67.3634 43.5104C67.0979 43.5104 66.8324 43.483 66.4277 43.4603C67.5493 40.9576 68.6323 38.5481 69.7457 36.0669ZM73.431 38.0072C72.8462 37.5881 72.3083 37.7683 71.8089 37.7122C71.3095 37.6561 71.0288 37.8687 70.8323 38.3379C70.4147 39.3361 69.9481 40.3128 69.5118 41.3039C69.4307 41.5382 69.364 41.7775 69.3118 42.0203C69.9071 42.0203 70.4171 42.0024 70.9258 42.0203C71.4907 42.0442 71.8369 41.7743 72.0591 41.2668C72.4182 40.4442 72.7971 39.631 73.1562 38.8096C73.2614 38.5672 73.3328 38.3009 73.431 38.0072Z" fill="#7C7C7C"/>
<path id="Vector_18" d="M52.0781 36.0623C52.5343 36.0623 52.9916 36.054 53.4477 36.0623C54.7459 36.0886 55.3763 36.996 54.9424 38.2509C54.7705 38.7465 54.5272 39.2169 54.312 39.6969C53.9331 40.5435 53.5471 41.3864 53.1705 42.2354C52.7939 43.0844 52.1542 43.5166 51.2302 43.5082C50.256 43.4987 49.2817 43.5333 48.3063 43.4951C47.09 43.4473 46.435 42.559 46.8842 41.4008C47.4596 39.9011 48.1648 38.4527 48.8584 37.0044C49.1613 36.3715 49.7379 36.079 50.4326 36.0695C50.9799 36.0623 51.5285 36.0695 52.07 36.0695L52.0781 36.0623ZM53.0454 37.7913C52.4021 37.7578 51.9928 37.7566 51.5788 37.7113C50.877 37.6336 50.4326 37.8963 50.1835 38.5936C49.9671 39.2026 49.6583 39.7757 49.3999 40.3703C49.2069 40.8145 49.0303 41.2671 48.8502 41.7053C49.3695 41.999 50.5355 42.1399 50.9203 41.9548C51.0853 41.8811 51.2229 41.7556 51.3133 41.5966C51.8711 40.4038 52.408 39.2002 53.0454 37.7913Z" fill="#7C7C7C"/>
<path id="Vector_19" d="M55.5271 43.4792H53.4277C54.5681 40.955 55.6674 38.5192 56.7738 36.0763C58.1083 36.0763 59.3866 36.0345 60.6614 36.0882C61.8216 36.1384 62.4532 37.0315 62.2462 38.2052C62.0602 39.2607 61.5632 40.0559 60.4919 40.37C60.3235 40.4327 60.1584 40.504 59.9971 40.5837C60.2065 41.5091 60.4158 42.4333 60.6451 43.4422H58.8755C58.5738 42.1288 58.2662 40.7963 57.934 39.3491C58.5188 39.3216 58.9656 39.3037 59.4112 39.2798C59.8568 39.256 60.1503 39.041 60.2696 38.5873C60.4217 38.0118 60.2123 37.7061 59.6194 37.6572C59.4981 37.6614 59.3767 37.659 59.2556 37.65C58.4217 37.4912 58.0147 37.8781 57.6978 38.6613C57.0487 40.2625 56.2826 41.8183 55.5271 43.4792Z" fill="#7C7C7C"/>
<path id="Vector_20" d="M130.341 39.274C130.893 39.274 131.345 39.3038 131.792 39.2656C132.308 39.2226 132.572 38.9409 132.646 38.4573C132.721 37.9534 132.529 37.6907 132.02 37.6609C131.538 37.631 131.053 37.6537 130.529 37.6537C129.638 39.6071 128.765 41.5176 127.875 43.465H125.773L129.11 36.0824C130.467 36.0824 131.8 36.0274 133.132 36.1003C134.152 36.1564 134.77 37.0256 134.615 38.0573C134.457 39.1319 134.001 40.0059 132.888 40.3498C132.718 40.4011 132.558 40.4859 132.342 40.5779C132.558 41.5331 132.766 42.462 132.99 43.4567H131.235C130.919 42.105 130.537 40.7796 130.341 39.274Z" fill="#7C7C7C"/>
<path id="Vector_21" d="M137.198 38.8713H140.323C140.083 39.4588 139.889 39.9304 139.664 40.4833C138.803 40.4833 137.961 40.4833 137.117 40.4833C136.192 40.4833 136.04 40.6552 135.982 41.8206H139.607C139.314 42.4725 139.092 42.968 138.858 43.4922C137.481 43.4922 136.146 43.5316 134.815 43.4779C133.977 43.4456 133.572 42.8809 133.645 42.0391C133.649 41.8839 133.679 41.7304 133.733 41.5853C134.543 39.7525 135.361 37.9233 136.171 36.106H141.613L140.906 37.7167C140.045 37.7167 139.227 37.7167 138.411 37.7167C137.441 37.7203 137.411 37.7501 137.198 38.8713Z" fill="#7C7C7C"/>
<path id="Vector_22" d="M101.556 40.4967H98.2506L97.7091 41.7026C98.9886 41.9999 100.173 41.7385 101.468 41.9128C101.246 42.4023 101.069 42.8752 100.815 43.3014C100.734 43.4375 100.451 43.5044 100.258 43.508C99.1617 43.5247 98.0647 43.5414 96.9711 43.5008C95.7372 43.4567 95.2004 42.6388 95.6846 41.471C96.439 39.68 97.267 37.9092 98.0775 36.0979H103.504L102.817 37.7051C101.944 37.7051 101.096 37.7051 100.249 37.7051C99.3453 37.7122 99.3137 37.7432 99.1102 38.8561H102.256C101.997 39.477 101.798 39.9462 101.556 40.4967Z" fill="#7C7C7C"/>
<path id="Vector_23" d="M110.933 40.4836C110.065 40.4836 109.276 40.4836 108.485 40.4836C107.476 40.4836 107.476 40.4836 107.184 41.6454C107.724 42.043 108.354 41.797 108.927 41.8388C109.529 41.8818 110.136 41.8484 110.874 41.8484L110.13 43.483C108.746 43.483 107.381 43.5248 106.02 43.4675C105.246 43.4341 104.828 42.8394 104.911 42.0585C104.946 41.782 105.022 41.5126 105.136 41.2597C105.85 39.6466 106.576 38.0359 107.3 36.4335C107.359 36.3189 107.425 36.2077 107.495 36.1003H112.875C112.624 36.6747 112.408 37.175 112.167 37.7147C111.316 37.7147 110.498 37.7147 109.679 37.7147C108.697 37.7206 108.676 37.7421 108.463 38.8669H111.599C111.36 39.458 111.163 39.9296 110.933 40.4836Z" fill="#7C7C7C"/>
<path id="Vector_24" d="M122.125 36.0678C123.429 36.0678 124.616 36.0379 125.801 36.0761C127.221 36.1215 127.834 36.9704 127.519 38.3734C127.142 40.0558 126.116 40.8904 124.403 40.9071C123.795 40.9143 123.186 40.9226 122.578 40.9071C122.411 40.8911 122.244 40.9312 122.101 41.0213C121.959 41.1114 121.849 41.2466 121.789 41.4062C121.476 42.0773 121.138 42.7375 120.787 43.4504H118.793L122.125 36.0678ZM122.907 39.2725C123.617 39.2725 124.249 39.3059 124.876 39.2618C125.12 39.2426 125.349 39.1325 125.519 38.9525C125.689 38.7724 125.788 38.5349 125.797 38.285C125.811 37.9722 125.7 37.7573 125.378 37.6701C123.982 37.2952 123.36 37.6653 122.907 39.2725Z" fill="#7C7C7C"/>
<path id="Vector_25" d="M116.432 38.3248C117.066 37.778 117.633 37.3636 118.109 36.8598C118.383 36.5492 118.728 36.313 119.113 36.1725C119.498 36.0321 119.912 35.9916 120.316 36.055C120.606 36.0749 120.898 36.0769 121.188 36.061C121.21 36.1219 121.231 36.1804 121.25 36.2448L117.027 39.957L118.28 43.4472H116.43L115.542 41.2406C114.965 41.7421 114.423 42.1015 114.021 42.5839C113.175 43.606 112.114 43.6227 110.855 43.4412C110.986 43.2605 111.127 43.089 111.28 42.9278C112.302 41.9988 113.335 41.0818 114.358 40.1553C114.957 39.612 114.954 39.606 114.665 38.8144C114.349 37.9475 114.032 37.083 113.681 36.1266H115.534C115.799 36.7702 116.075 37.4508 116.432 38.3248Z" fill="#7C7C7C"/>
<path id="Vector_26" d="M148.06 36.0789C147.78 36.6938 147.565 37.1643 147.344 37.6479C146.304 37.8318 145.265 37.581 144.148 37.8341C144.265 38.2043 144.333 38.4932 144.441 38.7655C144.717 39.4556 145.035 40.1291 145.293 40.8252C145.82 42.258 145.096 43.4293 143.617 43.4926C142.431 43.5428 141.243 43.5105 140.055 43.5093C139.906 43.5093 139.756 43.4807 139.459 43.4496C139.639 43.0365 139.804 42.689 139.943 42.3296C140.082 41.9702 140.336 41.8305 140.723 41.852C141.331 41.8795 141.941 41.8592 142.55 41.8592H143.597C143.503 41.4688 143.48 41.2049 143.378 40.9708C143.106 40.3129 142.793 39.6753 142.521 39.0162C142.374 38.6764 142.272 38.3177 142.219 37.95C142.082 36.7942 142.578 36.1422 143.716 36.0969C145.113 36.036 146.513 36.0789 148.06 36.0789Z" fill="#7C7C7C"/>
<path id="Vector_27" d="M149.612 41.7561C149.496 41.3788 149.428 41.0886 149.314 40.8211C149.059 40.2241 148.766 39.6426 148.517 39.0432C148.368 38.7032 148.257 38.3476 148.184 37.9829C148.002 36.9776 148.482 36.1919 149.471 36.1251C150.943 36.0319 152.425 36.1012 154.022 36.1012L153.284 37.7609H150.146C150.209 38.0609 150.287 38.3574 150.38 38.6492C150.685 39.4277 151.043 40.1847 151.315 40.9728C151.761 42.2504 151.044 43.4098 149.719 43.4802C148.356 43.5483 146.987 43.4958 145.457 43.4958C145.691 42.9059 145.897 42.4211 146.097 41.9256C147.257 41.7405 148.384 41.9722 149.612 41.7561Z" fill="#7C7C7C"/>
<path id="Vector_28" d="M63.5424 41.7205C64.4721 42.2733 65.4218 41.8554 66.3902 42.1157L65.8125 43.49C64.7143 43.49 63.6535 43.5318 62.5985 43.4769C61.8138 43.4351 61.3027 42.7258 61.3834 41.9246C61.402 41.708 61.4537 41.4957 61.5366 41.2954C62.2933 39.5748 63.057 37.8602 63.8394 36.1157H65.8861C65.1844 38.0477 64.1762 39.7802 63.5424 41.7205Z" fill="#7C7C7C"/>
<path id="Vector_29" d="M87.6665 36.0952H89.7401C88.6664 38.6158 87.5179 41.0182 86.4303 43.4707H84.3496C85.4244 40.9418 86.5624 38.5322 87.6665 36.0952Z" fill="#7C7C7C"/>
<path id="Vector_30" d="M160.679 37.4384C160.675 37.7719 160.606 38.1013 160.476 38.4073C160.346 38.7133 160.158 38.9898 159.922 39.2205C159.686 39.4512 159.407 39.6316 159.102 39.751C158.797 39.8704 158.472 39.9265 158.145 39.916C157.502 39.8888 156.895 39.6081 156.45 39.1329C156.006 38.6577 155.759 38.0251 155.762 37.368C155.76 37.0341 155.824 36.7034 155.95 36.3952C156.076 36.0869 156.26 35.8074 156.493 35.5729C156.726 35.3385 157.002 35.1539 157.306 35.0299C157.609 34.9059 157.934 34.8451 158.261 34.851C158.588 34.8533 158.911 34.9227 159.211 35.055C159.511 35.1874 159.782 35.38 160.007 35.6214C160.233 35.8628 160.408 36.1481 160.524 36.4603C160.639 36.7724 160.692 37.1051 160.679 37.4384ZM156.055 37.3907C156.06 37.9707 156.285 38.526 156.684 38.9394C157.083 39.3527 157.623 39.5917 158.191 39.6056C158.48 39.6108 158.767 39.5564 159.035 39.4458C159.304 39.3351 159.547 39.1705 159.752 38.9617C159.956 38.7528 160.117 38.5041 160.225 38.2303C160.334 37.9565 160.387 37.6632 160.381 37.368C160.385 36.7874 160.164 36.2287 159.767 35.813C159.37 35.3973 158.829 35.1581 158.26 35.1471C157.971 35.1461 157.684 35.2035 157.417 35.3158C157.149 35.4281 156.906 35.5933 156.701 35.8017C156.497 36.0101 156.334 36.2578 156.223 36.5304C156.112 36.8031 156.055 37.0954 156.055 37.3907Z" fill="#7C7C7C"/>
<path id="Vector_31" d="M158.823 37.3553C159.21 37.7314 159.249 38.2066 159.234 38.8347C159.023 38.3786 158.948 37.932 158.691 37.7398C158.434 37.5475 158.009 37.6359 157.602 37.5941C157.54 38.0001 157.485 38.3212 157.436 38.6687C157.181 38.1565 157.149 37.2001 157.358 36.0252C157.748 36.0252 158.162 36.018 158.575 36.0252C158.912 36.0323 159.172 36.1864 159.245 36.5362C159.33 36.9338 159.263 37.2801 158.793 37.3839C158.923 37.083 159.204 36.7738 158.901 36.4562C158.508 36.0419 158.036 36.1708 157.511 36.3308C157.527 36.6795 157.542 36.9983 157.559 37.3529L158.823 37.3553Z" fill="#7C7C7C"/>
</g>
</svg>
