<svg width="18" height="14" viewBox="0 0 18 14" fill="none" xmlns="http://www.w3.org/2000/svg">
<g id="Group 1">
<path id="Vector" d="M18 3.9144V11.9146C17.9934 11.9237 17.9831 11.9319 17.9803 11.9419C17.7422 12.8658 17.1627 13.3043 16.1794 13.3043H1.82176C1.76307 13.3043 1.70437 13.3043 1.64614 13.3043C0.702268 13.2716 0.00540026 12.5842 0.00258273 11.6695C-0.000860911 9.1275 -0.000860911 6.5854 0.00258273 4.04314C0.00489752 3.99956 0.00959658 3.95613 0.0166669 3.91304C0.0485989 3.92987 0.0636289 3.93669 0.0786557 3.94625C2.50924 5.51563 4.93967 7.08548 7.36994 8.65577C8.45986 9.35995 9.53944 9.36086 10.6312 8.65577C12.8042 7.25379 14.9763 5.85135 17.1477 4.44845C17.4294 4.26695 17.7164 4.0909 18 3.9144Z" fill="white"/>
<path id="Vector_2" d="M17.9981 1.80833C17.931 1.97982 17.8953 2.17152 17.7896 2.31743C17.6459 2.51586 17.4763 2.71833 17.2701 2.85122C14.8278 4.42221 12.3783 5.98482 9.92164 7.53905C9.31623 7.92244 8.67748 7.92109 8.07207 7.53905C5.61287 5.97943 3.15789 4.41472 0.70714 2.84493C0.118171 2.46872 -0.125118 1.81686 0.0618113 1.16724C0.253438 0.502813 0.848514 0.0493835 1.59013 0.0035916C1.64273 0.000449022 1.69533 0 1.74841 0H16.2495C17.048 0 17.6755 0.409882 17.9122 1.08464C17.9455 1.17892 17.9709 1.27589 18 1.37151L17.9981 1.80833Z" fill="white"/>
</g>
</svg>
