<svg width="19" height="20" viewBox="0 0 19 20" fill="none" xmlns="http://www.w3.org/2000/svg">
<path id="Vector" d="M12.7589 19.9966C12.4801 19.9525 12.199 19.913 11.9214 19.8621C10.7957 19.6395 9.72049 19.2183 8.74804 18.6189C7.20338 17.699 5.88564 16.5146 4.67387 15.2115C3.43677 13.8813 2.31254 12.4674 1.4279 10.8841C0.773637 9.7132 0.27603 8.48696 0.0825157 7.1545C-0.129429 5.66606 0.051415 4.23527 0.80589 2.90506C1.19754 2.2062 1.72784 1.59136 2.36552 1.09679C2.67192 0.858321 2.95643 0.592732 3.26398 0.355396C3.91249 -0.147529 4.61282 -0.120402 5.19452 0.460505C5.52856 0.793933 5.8312 1.15631 6.09874 1.54321C6.59519 2.26425 7.10547 2.98078 7.39805 3.81597C7.69869 4.67716 7.58004 5.44681 6.86703 6.07631C6.51364 6.40011 6.1401 6.70207 5.74857 6.98045C4.90194 7.55457 4.781 8.26206 5.10006 9.16959C5.39379 10.0059 5.90638 10.7191 6.45812 11.4039C7.17919 12.299 7.94749 13.1523 8.85286 13.8756C9.35393 14.2757 9.87918 14.6351 10.5254 14.7797C10.7834 14.8453 11.0546 14.8425 11.3112 14.7716C11.5678 14.7007 11.8006 14.5643 11.9859 14.3763C12.3995 13.9909 12.8084 13.5999 13.2438 13.2393C13.9533 12.6516 14.7412 12.6336 15.5475 13.0348C15.8163 13.162 16.0714 13.3153 16.3089 13.4925C17.1406 14.1378 17.9964 14.7605 18.6357 15.6082C19.1656 16.3089 19.1241 16.987 18.4675 17.5724C17.8328 18.1375 17.2304 18.7512 16.4679 19.1716C15.7011 19.604 14.8503 19.8735 13.9706 19.9627C13.9127 19.9719 13.8554 19.9843 13.799 20L12.7589 19.9966Z" fill="white"/>
</svg>
